<?xml version="1.0" encoding="UTF-8" standalone="no"?>
<!-- Created with Inkscape (http://www.inkscape.org/) -->

<svg
   width="14.79904mm"
   height="14.784918mm"
   viewBox="0 0 14.79904 14.784918"
   version="1.1"
   id="svg1"
   xml:space="preserve"
   xmlns:inkscape="http://www.inkscape.org/namespaces/inkscape"
   xmlns:sodipodi="http://sodipodi.sourceforge.net/DTD/sodipodi-0.dtd"
   xmlns="http://www.w3.org/2000/svg"
   xmlns:svg="http://www.w3.org/2000/svg"><sodipodi:namedview
     id="namedview1"
     pagecolor="#ffffff"
     bordercolor="#000000"
     borderopacity="0.25"
     inkscape:showpageshadow="2"
     inkscape:pageopacity="0.0"
     inkscape:pagecheckerboard="0"
     inkscape:deskcolor="#d1d1d1"
     inkscape:document-units="mm"><inkscape:page
       x="0"
       y="-8.9644316e-22"
       width="14.79904"
       height="14.784918"
       id="page2"
       margin="0"
       bleed="0" /></sodipodi:namedview><defs
     id="defs1" /><g
     inkscape:label="Warstwa 1"
     inkscape:groupmode="layer"
     id="layer1"
     transform="translate(-125.01372,-137.818)"><path
       style="fill:#000000"
       d="m 126.13436,152.34279 c -0.95138,-0.38221 -1.12063,-1.31704 -1.12063,-6.18958 0,-4.2301 0.0416,-4.63018 0.54837,-5.27444 0.32335,-0.41107 0.81193,-0.69714 1.19063,-0.69714 0.50356,0 0.64225,-0.1387 0.64225,-0.64226 0,-0.38316 0.28917,-0.86972 0.71682,-1.2061 0.68304,-0.53728 0.95068,-0.56 5.67973,-0.48223 4.34117,0.0714 5.02202,0.14074 5.43474,0.55346 0.41273,0.41273 0.48206,1.09358 0.55346,5.43475 0.0778,4.72905 0.055,4.99669 -0.48222,5.67973 -0.33639,0.42764 -0.82294,0.71681 -1.20611,0.71681 -0.50356,0 -0.64225,0.1387 -0.64225,0.64226 0,0.3787 -0.28608,0.86728 -0.69714,1.19062 -0.64745,0.50929 -1.02935,0.54718 -5.35781,0.5316 -2.56337,-0.009 -4.9303,-0.12509 -5.25984,-0.25748 z m 10.12416,-5.94346 v -5.02708 h -5.02708 -5.02708 l -0.0724,4.72788 c -0.0506,3.30449 0.0204,4.83963 0.23567,5.09905 0.24781,0.29861 1.24486,0.35711 5.09946,0.29921 l 4.79141,-0.072 z m 2.45363,-2.08204 c 0.0506,-3.30449 -0.0204,-4.83963 -0.23566,-5.09905 -0.24782,-0.29861 -1.24487,-0.35711 -5.09947,-0.29921 -4.7426,0.0712 -4.79227,0.078 -4.87596,0.66728 -0.0845,0.59477 -0.0809,0.59532 3.9026,0.59532 5.3065,0 5.04549,-0.26102 5.04549,5.04548 0,3.98349 5.5e-4,3.98708 0.59531,3.90261 0.58885,-0.0836 0.5961,-0.13587 0.66769,-4.81243 z"
       id="path1" /></g></svg>
